<svg width="55" height="55" viewBox="0 0 55 55" fill="none" xmlns="http://www.w3.org/2000/svg">
<path d="M40.6839 32.0833C41.3611 32.0833 42.0316 32.2167 42.6572 32.4758C43.2827 32.735 43.8512 33.1148 44.33 33.5936C44.8088 34.0724 45.1886 34.6408 45.4477 35.2664C45.7068 35.892 45.8402 36.5625 45.8402 37.2396V39.3135C45.8405 40.5523 45.573 41.7765 45.056 42.9022C44.539 44.028 43.7848 45.0286 42.845 45.8356C39.2562 48.9156 34.1229 50.4167 27.5 50.4167C20.8771 50.4167 15.7483 48.9133 12.1664 45.8333C11.2279 45.0269 10.4746 44.0272 9.95808 42.9028C9.44153 41.7783 9.17391 40.5555 9.17352 39.3181V37.2373C9.17413 35.8702 9.71765 34.5592 10.6846 33.5927C11.6515 32.6263 12.9626 32.0833 14.3298 32.0833H40.6839ZM27.2662 4.60166L27.5 4.58333C27.9153 4.58335 28.3166 4.73376 28.6296 5.00675C28.9426 5.27975 29.1462 5.65685 29.2027 6.06833L29.2187 6.30208V8.02083H37.2396C38.6071 8.02083 39.9186 8.56407 40.8856 9.53106C41.8526 10.498 42.3958 11.8096 42.3958 13.1771V23.501C42.3958 24.8686 41.8526 26.1801 40.8856 27.1471C39.9186 28.114 38.6071 28.6573 37.2396 28.6573H17.7604C16.3929 28.6573 15.0814 28.114 14.1144 27.1471C13.1474 26.1801 12.6041 24.8686 12.6041 23.501V13.1771C12.6041 11.8096 13.1474 10.498 14.1144 9.53106C15.0814 8.56407 16.3929 8.02083 17.7604 8.02083H25.7812V6.30437C25.7812 5.88903 25.9317 5.48775 26.2047 5.17474C26.4776 4.86172 26.8548 4.65815 27.2662 4.60166L27.5 4.58333L27.2662 4.59937V4.60166ZM22.3437 14.8958C21.584 14.8958 20.8554 15.1976 20.3182 15.7348C19.781 16.2721 19.4791 17.0007 19.4791 17.7604C19.4791 18.5201 19.781 19.2488 20.3182 19.786C20.8554 20.3232 21.584 20.625 22.3437 20.625C23.1035 20.625 23.8321 20.3232 24.3693 19.786C24.9065 19.2488 25.2083 18.5201 25.2083 17.7604C25.2083 17.0007 24.9065 16.2721 24.3693 15.7348C23.8321 15.1976 23.1035 14.8958 22.3437 14.8958ZM32.6402 14.8958C32.2573 14.885 31.8762 14.951 31.5193 15.0901C31.1625 15.2291 30.8371 15.4383 30.5625 15.7053C30.2878 15.9722 30.0695 16.2915 29.9205 16.6444C29.7714 16.9972 29.6946 17.3763 29.6946 17.7593C29.6946 18.1423 29.7714 18.5214 29.9205 18.8742C30.0695 19.227 30.2878 19.5463 30.5625 19.8133C30.8371 20.0802 31.1625 20.2894 31.5193 20.4285C31.8762 20.5675 32.2573 20.6335 32.6402 20.6227C33.3856 20.6016 34.0934 20.2907 34.6132 19.756C35.133 19.2213 35.4238 18.505 35.4238 17.7593C35.4238 17.0136 35.133 16.2972 34.6132 15.7625C34.0934 15.2278 33.3856 14.9169 32.6402 14.8958Z" fill="white"/>
</svg>
