<svg width="289" height="63" viewBox="0 0 289 63" fill="none" xmlns="http://www.w3.org/2000/svg">
<g clip-path="url(#clip0)">
<path d="M205.091 43.0052C207.637 42.996 213.203 42.9754 213.139 39.4348C213.077 35.8139 207.731 36.0317 205.125 36.1394C204.834 36.1508 204.575 36.1623 204.364 36.1646L204.483 43.0098C204.655 43.0052 204.861 43.0052 205.091 43.0052Z" fill="white"/>
<path d="M204.82 33.0296C206.945 33.0273 211.581 33.0227 211.526 29.8029C211.466 26.5098 207.013 26.7046 204.839 26.8008C204.593 26.8123 204.38 26.8214 204.201 26.8237L204.309 33.0319L204.82 33.0296Z" fill="white"/>
<path fill-rule="evenodd" clip-rule="evenodd" d="M199.845 62.1766C214.58 65.8502 229.504 56.8829 233.177 42.1521C236.851 27.4189 227.881 12.4956 213.146 8.82435C198.42 5.14852 183.496 14.1181 179.825 28.8535C176.151 43.5844 185.119 58.5077 199.847 62.1789L199.845 62.1766ZM209.658 23.1725C213.677 23.4566 216.877 24.6346 217.296 28.3104C217.608 31.0008 216.508 32.6394 214.722 33.5881C217.702 34.2481 219.592 35.9783 219.294 39.9383C218.925 44.8539 215.289 46.2358 210.068 46.6254L210.155 51.7816L207.048 51.8389L206.958 46.7514C206.154 46.7652 205.329 46.7744 204.474 46.7698L204.566 51.8802L201.458 51.9352L201.367 46.7698L200.489 46.7766C200.044 46.7789 199.595 46.7812 199.146 46.7904L195.099 46.8591L195.651 43.1375C195.651 43.1375 197.952 43.1329 197.911 43.0985C198.791 43.0802 199.013 42.4454 199.061 42.0466L198.921 33.8952L199.144 33.8906H199.249C199.14 33.8781 199.029 33.8727 198.919 33.8746L198.818 28.0537C198.688 27.4258 198.266 26.7016 197.008 26.7246C197.042 26.6787 194.748 26.7635 194.748 26.7635L194.689 23.4452L198.979 23.3719V23.3879C199.623 23.3764 200.285 23.3535 200.956 23.3283L200.869 18.2202L203.977 18.1675L204.064 23.1725C204.894 23.1427 205.728 23.1106 206.546 23.0969L206.459 18.1239L209.569 18.0689L209.658 23.1771V23.1725Z" fill="white"/>
</g>
<path d="M21.12 52.825C18.4433 52.825 16.005 52.385 13.805 51.505C11.605 50.625 9.71667 49.3417 8.14 47.655C6.56333 45.9683 5.335 43.8967 4.455 41.44C3.61167 38.9467 3.19 36.105 3.19 32.915C3.19 29.725 3.66667 26.9017 4.62 24.445C5.61 21.9517 6.93 19.8617 8.58 18.175C10.23 16.4883 12.155 15.205 14.355 14.325C16.555 13.445 18.9017 13.005 21.395 13.005C22.9717 13.005 24.3833 13.115 25.63 13.335C26.9133 13.555 28.0133 13.8117 28.93 14.105C29.8833 14.3983 30.6533 14.6917 31.24 14.985C31.8267 15.2783 32.23 15.4983 32.45 15.645L30.91 20.045C30.58 19.825 30.1033 19.5867 29.48 19.33C28.8567 19.0733 28.1417 18.8167 27.335 18.56C26.565 18.3033 25.7033 18.1017 24.75 17.955C23.8333 17.7717 22.8983 17.68 21.945 17.68C19.9283 17.68 18.1133 18.0283 16.5 18.725C14.8867 19.4217 13.5117 20.43 12.375 21.75C11.2383 23.07 10.3583 24.6833 9.735 26.59C9.14833 28.46 8.855 30.5683 8.855 32.915C8.855 35.1883 9.11167 37.26 9.625 39.13C10.175 41 10.9817 42.6133 12.045 43.97C13.1083 45.29 14.4283 46.3167 16.005 47.05C17.6183 47.7833 19.4883 48.15 21.615 48.15C24.0717 48.15 26.1067 47.8933 27.72 47.38C29.3333 46.8667 30.5433 46.4083 31.35 46.005L32.725 50.405C32.4683 50.5883 32.01 50.8267 31.35 51.12C30.69 51.3767 29.865 51.6333 28.875 51.89C27.885 52.1467 26.73 52.3667 25.41 52.55C24.09 52.7333 22.66 52.825 21.12 52.825ZM49.0664 22.795C49.5064 22.795 50.0014 22.8317 50.5514 22.905C51.1381 22.9417 51.7064 23.015 52.2564 23.125C52.8064 23.1983 53.3014 23.29 53.7414 23.4C54.2181 23.4733 54.5664 23.5467 54.7864 23.62L53.9064 28.075C53.5031 27.9283 52.8248 27.7633 51.8714 27.58C50.9548 27.36 49.7631 27.25 48.2964 27.25C47.3431 27.25 46.3898 27.36 45.4364 27.58C44.5198 27.7633 43.9148 27.8917 43.6214 27.965V52H38.5064V24.61C39.7164 24.17 41.2198 23.7667 43.0164 23.4C44.8131 22.9967 46.8298 22.795 49.0664 22.795ZM57.5489 57.335C57.9522 57.5183 58.4656 57.6833 59.0889 57.83C59.7489 58.0133 60.3906 58.105 61.0139 58.105C63.0306 58.105 64.6072 57.6467 65.7439 56.73C66.8806 55.85 67.9072 54.4017 68.8239 52.385C66.5139 47.985 64.3506 43.3283 62.3339 38.415C60.3539 33.465 58.7039 28.46 57.3839 23.4H62.8839C63.2872 25.05 63.7639 26.8283 64.3139 28.735C64.9006 30.6417 65.5422 32.6033 66.2389 34.62C66.9356 36.6367 67.6872 38.6533 68.4939 40.67C69.3006 42.6867 70.1439 44.63 71.0239 46.5C72.4172 42.65 73.6272 38.8367 74.6539 35.06C75.6806 31.2833 76.6522 27.3967 77.5689 23.4H82.8489C81.5289 28.79 80.0622 33.9783 78.4489 38.965C76.8356 43.915 75.0939 48.5533 73.2239 52.88C72.4906 54.53 71.7206 55.9417 70.9139 57.115C70.1439 58.325 69.2822 59.315 68.3289 60.085C67.3756 60.855 66.2939 61.4233 65.0839 61.79C63.9106 62.1567 62.5722 62.34 61.0689 62.34C60.6656 62.34 60.2439 62.3033 59.8039 62.23C59.3639 62.1933 58.9239 62.12 58.4839 62.01C58.0806 61.9367 57.6956 61.845 57.3289 61.735C56.9989 61.625 56.7606 61.5333 56.6139 61.46L57.5489 57.335ZM108.098 37.755C108.098 34.4183 107.273 31.8517 105.623 30.055C103.973 28.2583 101.773 27.36 99.0228 27.36C97.4828 27.36 96.2728 27.415 95.3928 27.525C94.5494 27.635 93.8711 27.7633 93.3578 27.91V45.95C93.9811 46.4633 94.8794 46.9583 96.0528 47.435C97.2261 47.9117 98.5094 48.15 99.9028 48.15C101.369 48.15 102.616 47.8933 103.643 47.38C104.706 46.83 105.568 46.0967 106.228 45.18C106.888 44.2267 107.364 43.1267 107.658 41.88C107.951 40.5967 108.098 39.2217 108.098 37.755ZM113.433 37.755C113.433 39.9183 113.139 41.9167 112.553 43.75C112.003 45.5833 111.178 47.16 110.078 48.48C108.978 49.8 107.621 50.8267 106.008 51.56C104.431 52.2933 102.616 52.66 100.563 52.66C98.9128 52.66 97.4461 52.44 96.1628 52C94.9161 51.56 93.9811 51.1383 93.3578 50.735V62.175H88.2428V24.28C89.4528 23.9867 90.9561 23.675 92.7528 23.345C94.5861 22.9783 96.6944 22.795 99.0778 22.795C101.278 22.795 103.258 23.1433 105.018 23.84C106.778 24.5367 108.281 25.5267 109.528 26.81C110.774 28.0933 111.728 29.67 112.388 31.54C113.084 33.3733 113.433 35.445 113.433 37.755ZM125.415 23.4H136.25V27.69H125.415V40.89C125.415 42.32 125.525 43.5117 125.745 44.465C125.965 45.3817 126.295 46.115 126.735 46.665C127.175 47.1783 127.725 47.545 128.385 47.765C129.045 47.985 129.815 48.095 130.695 48.095C132.235 48.095 133.464 47.93 134.38 47.6C135.334 47.2333 135.994 46.9767 136.36 46.83L137.35 51.065C136.837 51.3217 135.939 51.6333 134.655 52C133.372 52.4033 131.905 52.605 130.255 52.605C128.312 52.605 126.699 52.3667 125.415 51.89C124.169 51.3767 123.16 50.625 122.39 49.635C121.62 48.645 121.07 47.435 120.74 46.005C120.447 44.5383 120.3 42.8517 120.3 40.945V15.425L125.415 14.545V23.4ZM167.252 37.7C167.252 39.9733 166.922 42.0267 166.262 43.86C165.602 45.6933 164.667 47.27 163.457 48.59C162.284 49.91 160.872 50.9367 159.222 51.67C157.572 52.3667 155.776 52.715 153.832 52.715C151.889 52.715 150.092 52.3667 148.442 51.67C146.792 50.9367 145.362 49.91 144.152 48.59C142.979 47.27 142.062 45.6933 141.402 43.86C140.742 42.0267 140.412 39.9733 140.412 37.7C140.412 35.4633 140.742 33.4283 141.402 31.595C142.062 29.725 142.979 28.13 144.152 26.81C145.362 25.49 146.792 24.4817 148.442 23.785C150.092 23.0517 151.889 22.685 153.832 22.685C155.776 22.685 157.572 23.0517 159.222 23.785C160.872 24.4817 162.284 25.49 163.457 26.81C164.667 28.13 165.602 29.725 166.262 31.595C166.922 33.4283 167.252 35.4633 167.252 37.7ZM161.917 37.7C161.917 34.4733 161.184 31.925 159.717 30.055C158.287 28.1483 156.326 27.195 153.832 27.195C151.339 27.195 149.359 28.1483 147.892 30.055C146.462 31.925 145.747 34.4733 145.747 37.7C145.747 40.9267 146.462 43.4933 147.892 45.4C149.359 47.27 151.339 48.205 153.832 48.205C156.326 48.205 158.287 47.27 159.717 45.4C161.184 43.4933 161.917 40.9267 161.917 37.7Z" fill="white"/>
<path d="M263.645 37.7C263.645 39.9733 263.315 42.0267 262.655 43.86C261.995 45.6933 261.06 47.27 259.85 48.59C258.677 49.91 257.265 50.9367 255.615 51.67C253.965 52.3667 252.168 52.715 250.225 52.715C248.282 52.715 246.485 52.3667 244.835 51.67C243.185 50.9367 241.755 49.91 240.545 48.59C239.372 47.27 238.455 45.6933 237.795 43.86C237.135 42.0267 236.805 39.9733 236.805 37.7C236.805 35.4633 237.135 33.4283 237.795 31.595C238.455 29.725 239.372 28.13 240.545 26.81C241.755 25.49 243.185 24.4817 244.835 23.785C246.485 23.0517 248.282 22.685 250.225 22.685C252.168 22.685 253.965 23.0517 255.615 23.785C257.265 24.4817 258.677 25.49 259.85 26.81C261.06 28.13 261.995 29.725 262.655 31.595C263.315 33.4283 263.645 35.4633 263.645 37.7ZM258.31 37.7C258.31 34.4733 257.577 31.925 256.11 30.055C254.68 28.1483 252.718 27.195 250.225 27.195C247.732 27.195 245.752 28.1483 244.285 30.055C242.855 31.925 242.14 34.4733 242.14 37.7C242.14 40.9267 242.855 43.4933 244.285 45.4C245.752 47.27 247.732 48.205 250.225 48.205C252.718 48.205 254.68 47.27 256.11 45.4C257.577 43.4933 258.31 40.9267 258.31 37.7ZM275.626 23.4H286.461V27.69H275.626V40.89C275.626 42.32 275.736 43.5117 275.956 44.465C276.176 45.3817 276.506 46.115 276.946 46.665C277.386 47.1783 277.936 47.545 278.596 47.765C279.256 47.985 280.026 48.095 280.906 48.095C282.446 48.095 283.675 47.93 284.591 47.6C285.545 47.2333 286.205 46.9767 286.571 46.83L287.561 51.065C287.048 51.3217 286.15 51.6333 284.866 52C283.583 52.4033 282.116 52.605 280.466 52.605C278.523 52.605 276.91 52.3667 275.626 51.89C274.38 51.3767 273.371 50.625 272.601 49.635C271.831 48.645 271.281 47.435 270.951 46.005C270.658 44.5383 270.511 42.8517 270.511 40.945V15.425L275.626 14.545V23.4Z" fill="white"/>
<defs>
<clipPath id="clip0">
<rect width="55" height="55" fill="white" transform="translate(179 8)"/>
</clipPath>
</defs>
</svg>
